M48
;FILE_FORMAT=2:4
INCH
;TYPE=PLATED
T01C0.018
T02C0.031
T03C0.038
T04C0.043
T05C0.071
T06C0.126
T07C0.138
%
T01
X+008000Y+026500
X+006750Y+029500
Y+031500
Y+030500
X+006500Y+043000
Y+044500
X+010750Y+012500
X+010250Y+029500
Y+028500
Y+027500
Y+033500
Y+034500
Y+037250
X+011500Y+046500
X+013750Y+012500
X+016500Y+022000
X+016000Y+035500
X+018500Y+011250
X+020500Y+014000
X+018500Y+017500
X+020500Y+015750
X+018500Y+016500
X+019500Y+017500
X+020500Y+022000
X+019500
X+021750Y+018500
X+025250Y+016250
Y+017000
X+028750Y+032000
X+031750
X+034000Y+014500
X+035000Y+017250
Y+016250
X+036750Y+014500
X+040750Y+012500
X+046750Y+037500
Y+040500
X+007750Y+023750
X+006750Y+036000
X+010750Y+020750
X+010250Y+038750
X+011500Y+048000
X+013750Y+020750
X+020500Y+014750
X+019500Y+021000
X+028750Y+027000
X+031500Y+006250
X+031750Y+027000
X+040750Y+020750
X+046750Y+039000
X+012250Y+012500
X+024250Y+014000
X+018000Y+037500
X+015250Y+046500
X+033000Y+010250
Y+011250
Y+014500
Y+016250
Y+017000
X+026750Y+020500
Y+022000
X+030250Y+032000
X+039250Y+012500
X+042250
X+012250Y+020750
X+006250Y+023750
X+009250
X+024250Y+014750
X+018000Y+036000
Y+039000
X+015250Y+048000
X+030000Y+006250
X+033000
X+030250Y+027000
X+039250Y+020750
X+042250
T02
X+017500Y+044689
Y+043311
X+042000Y+034689
Y+033311
T03
X+009516Y+043500
X+011484
X+009516Y+045000
X+011484
X+013000Y+047500
Y+043500
X+022500Y+020531
Y+024500
X+026000Y+042000
Y+046000
X+028500Y+042016
Y+043984
X+032000Y+018000
Y+022000
X+008000Y+038000
Y+040000
Y+041000
Y+039000
X+016500Y+050000
X+034500
X+017500Y+024500
X+021500
Y+025500
X+017500
X+009000Y+036000
X+008000
X+009000Y+027500
X+008000
X+009000Y+030500
Y+029500
Y+028500
X+008000Y+030500
Y+029500
Y+028500
X+009000Y+033500
Y+032500
Y+031500
X+008000Y+033500
Y+032500
Y+031500
X+009000Y+034500
X+008000
X+017500Y+018000
Y+022000
X+024984Y+018500
X+023016
X+014000Y+047500
Y+043500
X+022000Y+047500
X+018000
X+017500Y+041000
X+018500
X+031000Y+023500
X+035000
Y+024500
X+031000
X+034500Y+047750
X+030500
X+041000Y+039984
Y+038016
X+023500Y+050000
X+019000
X+021000
X+020000
X+032500
X+011516Y+037500
X+013484
X+034000Y+043000
X+038000
X+014000Y+050000
X+013000
X+025516Y+015000
X+027484
X+037000Y+020531
Y+024500
X+010500Y+036000
X+014500
X+038000Y+033000
X+039000
X+037000Y+045000
X+039000
X+038000Y+046000
X+023500Y+047500
X+027500
X+039000Y+040000
Y+041000
X+037000Y+040000
Y+041000
Y+050000
X+039000
X+038000
X+026000
X+028000
X+027000
T04
X+021500Y+045500
X+023500
X+022500
X+036000Y+026524
Y+029476
X+039000Y+037500
Y+035500
Y+036500
T05
X+045000Y+027220
Y+028780
X+035220Y+008000
X+036780
X+015720
X+017280
X+025720
X+027280
T06
X+022500Y+038807
X+032307Y+036500
T07
X+046465Y+006535
Y+050465
X+011925Y+009925
X+006535Y+006535
X+041059Y+009925
X+011925Y+023311
X+006535Y+050472
X+041000Y+023250
T00
M30
